<svg width="0" height="0" class="hidden">
  <symbol viewBox="0 0 24 24" xmlns="http://www.w3.org/2000/svg" id="linkedin">
    <title>LinkedIn icon</title>
    <path d="M20.447 20.452h-3.554v-5.569c0-1.328-.027-3.037-1.852-3.037-1.853 0-2.136 1.445-2.136 2.939v5.667H9.351V9h3.414v1.561h.046c.477-.9 1.637-1.85 3.37-1.85 3.601 0 4.267 2.37 4.267 5.455v6.286zM5.337 7.433a2.062 2.062 0 0 1-2.063-2.065 2.064 2.064 0 1 1 2.063 2.065zm1.782 13.019H3.555V9h3.564v11.452zM22.225 0H1.771C.792 0 0 .774 0 1.729v20.542C0 23.227.792 24 1.771 24h20.451C23.2 24 24 23.227 24 22.271V1.729C24 .774 23.2 0 22.222 0h.003z"></path>
  </symbol>
  <symbol viewBox="0 0 24 24" xmlns="http://www.w3.org/2000/svg" id="github">
    <title>GitHub icon</title>
    <path d="M12 .297c-6.63 0-12 5.373-12 12 0 5.303 3.438 9.8 8.205 11.385.6.113.82-.258.82-.577 0-.285-.01-1.04-.015-2.04-3.338.724-4.042-1.61-4.042-1.61C4.422 18.07 3.633 17.7 3.633 17.7c-1.087-.744.084-.729.084-.729 1.205.084 1.838 1.236 1.838 1.236 1.07 1.835 2.809 1.305 3.495.998.108-.776.417-1.305.76-1.605-2.665-.3-5.466-1.332-5.466-5.93 0-1.31.465-2.38 1.235-3.22-.135-.303-.54-1.523.105-3.176 0 0 1.005-.322 3.3 1.23.96-.267 1.98-.399 3-.405 1.02.006 2.04.138 3 .405 2.28-1.552 3.285-1.23 3.285-1.23.645 1.653.24 2.873.12 3.176.765.84 1.23 1.91 1.23 3.22 0 4.61-2.805 5.625-5.475 5.92.42.36.81 1.096.81 2.22 0 1.606-.015 2.896-.015 3.286 0 .315.21.69.825.57C20.565 22.092 24 17.592 24 12.297c0-6.627-5.373-12-12-12"></path>
  </symbol>
  <symbol xmlns="http://www.w3.org/2000/svg" viewBox="0 0 24 24" id="telegram">
    <title>Telegram icon</title>
    <path d="M23.91 3.79L20.3 20.84c-.25 1.21-.98 1.5-2 .94l-5.5-4.07-2.66 2.57c-.3.3-.55.56-1.1.56-.72 0-.6-.27-.84-.95L6.3 13.7.85 12c-1.18-.35-1.19-1.16.26-1.75l21.26-8.2c.97-.43 1.9.24 1.53 1.73z"></path>
  </symbol>
  <symbol viewBox="0 0 24 24" xmlns="http://www.w3.org/2000/svg" id="twitter">
    <title>Twitter icon</title>
    <path d="M23.954 4.569a10 10 0 0 1-2.825.775 4.958 4.958 0 0 0 2.163-2.723c-.951.555-2.005.959-3.127 1.184a4.92 4.92 0 0 0-8.384 4.482C7.691 8.094 4.066 6.13 1.64 3.161a4.822 4.822 0 0 0-.666 2.475c0 1.71.87 3.213 2.188 4.096a4.904 4.904 0 0 1-2.228-.616v.061a4.923 4.923 0 0 0 3.946 4.827 4.996 4.996 0 0 1-2.212.085 4.937 4.937 0 0 0 4.604 3.417 9.868 9.868 0 0 1-6.102 2.105c-.39 0-.779-.023-1.17-.067a13.995 13.995 0 0 0 7.557 2.209c9.054 0 13.999-7.496 13.999-13.986 0-.209 0-.42-.015-.63a9.936 9.936 0 0 0 2.46-2.548l-.047-.02z"></path>
  </symbol>
  <symbol viewBox="0 0 490 490" xmlns="http://www.w3.org/2000/svg" id="at">
    <title>At icon</title>
	  <path d="M421 62C376 21 321 0 254 0 184 0 125 23 76 70S2 176 2 245c0 67 24 125 70 173 47 48 110 72 189 72 48 0 95-10 141-29 15-7 22-24 16-39-6-16-24-23-39-16-40 17-79 26-118 26A180 180 0 0170 246a186 186 0 01307-146c33 30 49 68 49 113 0 31-8 56-23 77s-30 31-47 31c-9 0-13-5-13-14l2-28 18-152h-64l-4 15a83 83 0 00-53-20c-31 0-58 13-79 37-22 25-33 56-33 95 0 37 9 68 29 91 19 23 43 35 70 35 25 0 46-11 63-31 13 20 32 29 58 29 37 0 70-16 97-49 27-32 41-72 41-118 0-58-22-108-67-149zM274 292c-12 15-25 23-41 23-11 0-19-6-26-17-6-11-10-25-10-42 0-20 5-37 14-50s21-19 34-19c12 0 23 5 32 15s14 22 14 37c0 20-6 38-17 53z"/>
  </symbol>
  <symbol viewBox="0 0 24 24" xmlns="http://www.w3.org/2000/svg" id="twitch">
    <title>Twitch icon</title>
    <path d="M2.149 0l-1.612 4.119v16.836h5.731v3.045h3.224l3.045-3.045h4.657l6.269-6.269v-14.686h-21.314zm19.164 13.612l-3.582 3.582h-5.731l-3.045 3.045v-3.045h-4.836v-15.045h17.194v11.463zm-3.582-7.343v6.262h-2.149v-6.262h2.149zm-5.731 0v6.262h-2.149v-6.262h2.149z" fill-rule="evenodd" clip-rule="evenodd"/>
  </symbol>
</svg>
